<?xml version="1.0" encoding="utf-8"?>
<!-- Generator: Adobe Illustrator 18.1.1, SVG Export Plug-In . SVG Version: 6.00 Build 0)  -->
<!DOCTYPE svg PUBLIC "-//W3C//DTD SVG 1.1//EN" "http://www.w3.org/Graphics/SVG/1.1/DTD/svg11.dtd">
<svg version="1.1" id="Layer_1" xmlns="http://www.w3.org/2000/svg" xmlns:xlink="http://www.w3.org/1999/xlink" x="0px" y="0px"
	 viewBox="0 302 612 152" enable-background="new 0 302 612 152" xml:space="preserve">
<g>
	<path d="M28.3,365c-0.1,10.7,2.6,20,8.2,27.8c5.4,8.1,13.6,12.2,24.6,12.3c17.5-0.2,28.2-9.1,32-26.6h6.6
		c-4,21.3-16.8,32-38.6,32.3c-13.1-0.3-22.9-4.8-29.5-13.4c-6.7-8.6-10-19.2-9.8-31.8c-0.3-12.8,2.9-24,9.5-33.5
		c6.6-9.6,16.6-14.5,29.9-14.8c14,0.2,24.3,4.9,30.8,14.1c6.4,9,9.2,20.2,8.5,33.5H28.3z M93.8,359.3c-0.2-9.7-3.1-18.1-8.7-25.2
		c-5.7-7-13.7-10.7-24-10.9c-10,0.3-17.7,4.1-23.3,11.4c-5.5,7.3-8.7,15.6-9.6,24.8H93.8z"/>
	<path d="M140.2,361.9l-32.7-42.4h9.3l28,37.4l28.1-37.4h8.6l-32.3,42.4l35.3,46.9h-9.1l-30.6-41.9l-31.3,41.9h-8.3L140.2,361.9z"/>
	<path d="M201.3,340h0.3c1.4-5,4.8-9.9,10.1-14.8c5.2-5,12.7-7.6,22.4-7.8c13.7,0.2,23.8,4.9,30.4,13.9c6.5,8.9,9.8,19.9,9.8,33
		c0,13.7-3.3,24.9-9.8,33.4c-6.6,8.7-16.7,13.1-30.4,13.2c-7.4,0-13.9-1.7-19.6-5.1c-5.8-3.3-10.1-8.5-12.9-15.6h-0.3v50.6h-6.6
		V319.5h6.6V340z M259.8,393c5.2-7.9,7.8-17.5,7.8-28.7c0-10.7-2.5-20.1-7.6-28.3c-5.3-8.3-13.9-12.6-25.9-12.9
		c-11.7,0.3-20.1,4.5-25.2,12.6c-5.1,8.1-7.6,17.7-7.5,28.7c-0.1,10.9,2.2,20.3,7,28.2c4.9,8.2,13.4,12.4,25.7,12.6
		C245.7,405.1,254.3,401,259.8,393z"/>
	<path d="M296.3,339.3h0.6c1.9-6.1,6.1-11,12.5-14.9c6.3-3.8,13.5-5.7,21.7-5.4v6.6c-3.6-0.6-7.5-0.3-11.8,0.8
		c-4.4,1.3-8.7,3.9-12.9,7.8c-3.2,3.2-5.6,6.6-7.1,10.3c-1.6,3.7-2.6,8.9-3,15.5v48.8h-6.5v-89.4h6.5V339.3z"/>
	<path d="M340.6,365c-0.1,10.7,2.6,20,8.2,27.8c5.4,8.1,13.6,12.2,24.6,12.3c17.5-0.2,28.2-9.1,32-26.6h6.6
		c-4,21.3-16.8,32-38.6,32.3c-13.1-0.3-22.9-4.8-29.5-13.4c-6.7-8.6-10-19.2-9.8-31.8c-0.3-12.8,2.9-24,9.5-33.5
		c6.6-9.6,16.6-14.5,29.9-14.8c14,0.2,24.3,4.9,30.8,14.1c6.4,9,9.2,20.2,8.5,33.5H340.6z M406.1,359.3c-0.2-9.7-3.1-18.1-8.7-25.2
		c-5.7-7-13.7-10.7-24-10.9c-10,0.3-17.7,4.1-23.3,11.4c-5.5,7.3-8.7,15.6-9.6,24.8H406.1z"/>
	<path d="M431.4,379.1c0.7,8.2,3.7,14.6,9.2,19.1c5.4,4.6,12.2,7,20.4,7c3,0,6.2-0.3,9.5-1c3.3-0.5,6.3-1.4,9.1-2.8
		c2.9-1.4,5.2-3.4,7-5.9c1.8-2.4,2.7-5.5,2.7-9.2c0-3.8-0.8-7-2.4-9.4c-1.8-2.4-4.1-4.3-7.1-5.5c-2.8-1.4-6-2.5-9.8-3.3
		c-3.7-0.8-7.4-1.6-11.3-2.3c-3.8-0.8-7.6-1.8-11.1-3c-3.6-1-6.9-2.4-9.9-4.2c-3-1.9-5.3-4.2-7-7.1c-1.8-2.9-2.7-6.6-2.7-11.1
		c0-4.5,1-8.3,3.1-11.3c1.9-2.9,4.4-5.2,7.6-7c6.6-3.2,13.8-4.8,21.6-4.7c9.8,0,17.7,2.2,23.8,6.4c6.1,4.5,9.1,11.8,9.3,22.1h-6.6
		c-0.1-8.1-2.6-14-7.5-17.6c-5-3.5-11.3-5.3-19-5.3c-6.3,0-12.1,1.2-17.3,3.6c-2.4,1.4-4.4,3.2-5.9,5.3c-1.6,2.2-2.5,5-2.5,8.3
		c0,3.5,0.9,6.3,2.8,8.5c1.6,2.2,3.9,4,6.8,5.4c1.4,0.7,3,1.2,4.7,1.7c1.5,0.5,3.2,1,4.9,1.6c1.8,0.3,3.6,0.7,5.3,1
		c1.8,0.5,3.5,0.9,5.3,1.4c9.1,1.2,16.6,3.7,22.6,7.3c2.8,1.8,5,4.2,6.6,7.3c1.6,3.1,2.4,7,2.4,11.6c0,4.6-1,8.5-3,11.6
		c-2,3.2-4.9,5.8-8.5,7.8c-3.3,1.9-7,3.2-11.1,4c-4.2,0.8-8.3,1.3-12.3,1.3c-10.4,0-18.8-2.7-25.4-8.2c-6.6-5.3-10.2-13.2-10.8-23.6
		H431.4z"/>
	<path d="M515,379.1c0.7,8.2,3.7,14.6,9.2,19.1c5.4,4.6,12.2,7,20.4,7c3,0,6.2-0.3,9.5-1c3.3-0.5,6.3-1.4,9.1-2.8
		c2.9-1.4,5.2-3.4,7-5.9c1.8-2.4,2.7-5.5,2.7-9.2c0-3.8-0.8-7-2.4-9.4c-1.8-2.4-4.1-4.3-7.1-5.5c-2.8-1.4-6-2.5-9.8-3.3
		c-3.7-0.8-7.4-1.6-11.3-2.3c-3.8-0.8-7.6-1.8-11.1-3c-3.6-1-6.9-2.4-9.9-4.2c-3-1.9-5.3-4.2-7-7.1c-1.8-2.9-2.7-6.6-2.7-11.1
		c0-4.5,1-8.3,3.1-11.3c1.9-2.9,4.4-5.2,7.6-7c6.6-3.2,13.8-4.8,21.6-4.7c9.8,0,17.7,2.2,23.8,6.4c6.1,4.5,9.1,11.8,9.3,22.1h-6.6
		c-0.1-8.1-2.6-14-7.5-17.6c-5-3.5-11.3-5.3-19-5.3c-6.3,0-12.1,1.2-17.3,3.6c-2.4,1.4-4.4,3.2-5.9,5.3c-1.6,2.2-2.5,5-2.5,8.3
		c0,3.5,0.9,6.3,2.8,8.5c1.6,2.2,3.9,4,6.8,5.4c1.4,0.7,3,1.2,4.7,1.7c1.5,0.5,3.2,1,4.9,1.6c1.8,0.3,3.6,0.7,5.3,1
		c1.8,0.5,3.5,0.9,5.3,1.4c9.1,1.2,16.6,3.7,22.6,7.3c2.8,1.8,5,4.2,6.6,7.3c1.6,3.1,2.4,7,2.4,11.6c0,4.6-1,8.5-3,11.6
		c-2,3.2-4.9,5.8-8.5,7.8c-3.3,1.9-7,3.2-11.1,4c-4.2,0.8-8.3,1.3-12.3,1.3c-10.4,0-18.8-2.7-25.4-8.2c-6.6-5.3-10.2-13.2-10.8-23.6
		H515z"/>
</g>
</svg>
