<?xml version="1.0" encoding="utf-8"?>
<!-- Generator: Adobe Illustrator 18.1.1, SVG Export Plug-In . SVG Version: 6.00 Build 0)  -->
<!DOCTYPE svg PUBLIC "-//W3C//DTD SVG 1.1//EN" "http://www.w3.org/Graphics/SVG/1.1/DTD/svg11.dtd">
<svg version="1.1" id="Layer_1" xmlns="http://www.w3.org/2000/svg" xmlns:xlink="http://www.w3.org/1999/xlink" x="0px" y="0px"
	 viewBox="8 252 597 174" enable-background="new 8 252 597 174" xml:space="preserve">
<g>
	<g>
		<polygon fill="#CCCCCC" points="168.4,374.2 168.4,316.4 176.2,316.4 211.5,363.5 211.5,316.4 218.4,316.4 218.4,374.2 
			211.5,374.2 175.3,327.2 175.3,374.2 		"/>
		<path fill="#CCCCCC" d="M276.3,372.3c-4.9,2-9.8,2.9-14.7,2.9c-21.6,0-31.4-9.8-31.4-30.4c0-19.6,9.8-28.4,30.4-28.4
			c5.9,0,10.8,1,16.7,2v6.9c-4.9-2-9.8-2.9-15.7-2.9c-15.7,0-23.5,7.8-23.5,22.6c0,15.7,7.8,24.5,23.5,24.5c2.9,0,4.9,0,7.8-1v-19.6
			h7.8v23.5H276.3z"/>
		<path fill="#CCCCCC" d="M289,352.7v-35.3h7.8v35.3c0,10.8,5.9,16.7,16.7,16.7c10.8,0,16.7-5.9,16.7-16.7v-35.3h7.8v35.3
			c0,15.7-7.8,22.6-24.5,22.6C296.9,375.2,289,367.4,289,352.7z"/>
		<polygon fill="#CCCCCC" points="357.7,316.4 357.7,368.4 389.1,368.4 389.1,374.2 350.8,374.2 350.8,316.4 		"/>
		<polygon fill="#CCCCCC" points="399.9,374.2 392,374.2 420.5,308.5 449.9,374.2 441.1,374.2 433.2,356.6 414.6,356.6 416.5,350.7 
			431.2,350.7 420.5,324.2 		"/>
		<path fill="#CCCCCC" d="M457.7,374.2v-57.9h24.5c10.8,0,16.7,4.9,16.7,13.7c0,7.8-5.9,12.7-16.7,16.7l19.6,27.5h-9.8l-18.6-26.5
			v-4.9c10.8-2,16.7-5.9,16.7-12.7c0-4.9-2.9-7.8-8.8-7.8h-16.7v52H457.7L457.7,374.2L457.7,374.2z"/>
		<path fill="#CCCCCC" d="M531.3,316.4v41.2c0,10.8-6.9,16.7-19.6,16.7v-5.9c7.8,0,11.8-3.9,11.8-10.8v-41.2H531.3z"/>
		<path fill="#CCCCCC" d="M544,372.3v-6.9c5.9,2,12.8,2.9,19.6,2.9c9.8,0,14.7-3.9,14.7-10.8c0-5.9-3.9-9.8-10.8-9.8h-7.8
			c-11.8,0-18.6-4.9-18.6-15.7s7.8-16.7,23.5-16.7c6.9,0,12.8,1,18.6,2v6.9c-5.9-2-11.8-2.9-18.6-2.9c-10.8,0-15.7,3.9-15.7,10.8
			c0,5.9,3.9,9.8,10.8,9.8h7.8c12.8,0,18.6,4.9,18.6,15.7c0,11.8-7.8,16.7-22.6,16.7C556.8,375.2,550.9,374.2,544,372.3z"/>
		<polygon points="170.4,373.3 170.4,314.4 178.2,314.4 213.5,361.5 213.5,314.4 220.4,314.4 220.4,373.3 213.5,373.3 177.2,325.2 
			177.2,373.3 		"/>
		<path d="M278.2,370.3c-4.9,2-9.8,2.9-14.7,2.9c-21.6,0-31.4-9.8-31.4-30.4c0-19.6,9.8-28.4,30.4-28.4c5.9,0,10.8,1,16.7,2v6.9
			c-4.9-2-9.8-2.9-15.7-2.9c-15.7,0-23.5,7.8-23.5,22.6c0,15.7,7.8,24.5,23.5,24.5c2.9,0,4.9,0,7.8-1v-19.6h7.8L278.2,370.3
			L278.2,370.3z"/>
		<path d="M291,350.7v-35.3h7.8v35.3c0,10.8,5.9,16.7,16.7,16.7c10.8,0,16.7-5.9,16.7-16.7v-35.3h7.8v35.3
			c0,15.7-7.8,22.6-24.5,22.6C298.8,373.3,291,365.4,291,350.7z"/>
		<polygon points="359.6,314.4 359.6,366.4 390.1,366.4 390.1,373.3 352.8,373.3 352.8,314.4 		"/>
		<polygon points="401.8,373.3 394,373.3 422.4,306.6 451.8,373.3 443,373.3 435.2,354.6 416.5,354.6 418.5,348.7 433.2,348.7 
			422.4,322.3 		"/>
		<path d="M459.7,373.3v-57.9h24.5c10.8,0,16.7,4.9,16.7,13.7c0,7.8-5.9,12.7-16.7,16.7l19.6,27.5H494l-18.6-26.5v-4.9
			c10.8-2,16.7-5.9,16.7-12.7c0-4.9-2.9-7.8-8.8-7.8h-16.7v52C466.5,373.3,459.7,373.3,459.7,373.3z"/>
		<path fill="#A6120D" d="M533.2,314.4v41.2c0,10.8-6.9,16.7-19.6,16.7v-5.9c7.8,0,11.8-3.9,11.8-10.8v-41.2H533.2z"/>
		<path fill="#A6120D" d="M546,370.3v-6.9c5.9,2,12.8,2.9,19.6,2.9c9.8,0,14.7-3.9,14.7-10.8c0-5.9-3.9-9.8-10.8-9.8h-7.8
			c-11.8,0-18.6-4.9-18.6-15.7c0-10.8,7.8-16.7,23.5-16.7c6.9,0,12.8,1,18.6,2v6.9c-5.9-2-11.8-2.9-18.6-2.9
			c-10.8,0-15.7,3.9-15.7,10.8c0,5.9,3.9,9.8,10.8,9.8h7.8c12.8,0,18.6,4.9,18.6,15.7c0,11.8-7.8,16.7-22.6,16.7
			C558.7,373.3,551.9,372.3,546,370.3z"/>
	</g>
	<g>
		<polygon fill="#B3B3B3" points="90.9,269.3 23.2,293.8 34,383.1 90.9,414.5 148.8,382.1 159.6,292.8 		"/>
		<polygon fill="#A6120D" points="152.7,298.7 90.9,277.2 90.9,406.6 142.9,378.2 		"/>
		<polygon fill="#DD1B16" points="31.1,298.7 39.9,378.2 90.9,406.6 90.9,277.2 		"/>
		<path fill="#F2F2F2" d="M108.6,345.8l-16.7,7.8H74.2l-8.8,21.6H49.7l42.2-93.2L108.6,345.8z M106.6,341.9l-15.7-30.4l-12.8,29.4
			h12.8L106.6,341.9z"/>
		<polygon fill="#B3B3B3" points="90.9,282.1 90.9,312.5 105.6,341.9 90.9,341.9 90.9,353.7 110.5,354.6 120.3,375.2 135.1,376.2 		
			"/>
	</g>
</g>
</svg>
