<?xml version="1.0" encoding="utf-8"?>
<!-- Generator: Adobe Illustrator 18.1.1, SVG Export Plug-In . SVG Version: 6.00 Build 0)  -->
<!DOCTYPE svg PUBLIC "-//W3C//DTD SVG 1.1//EN" "http://www.w3.org/Graphics/SVG/1.1/DTD/svg11.dtd">
<svg version="1.1" id="Layer_1" xmlns="http://www.w3.org/2000/svg" xmlns:xlink="http://www.w3.org/1999/xlink" x="0px" y="0px"
	 viewBox="-260.2 391.9 62.4 17.8" enable-background="new -260.2 391.9 62.4 17.8" xml:space="preserve">
<path d="M-214.9,405.9c0.1-0.1,0.2-0.3,0.2-0.5c0-0.2-0.1-0.4-0.3-0.6c-0.2-0.2-0.4-0.2-0.6-0.2h-3.3c-0.1,0-0.2,0.1-0.2,0.2v0.6
	h3.5l-2.9,0.8c-0.2,0.1-0.3,0.2-0.4,0.3c-0.1,0.1-0.2,0.3-0.2,0.5c0,0.2,0.1,0.4,0.3,0.6c0.2,0.2,0.4,0.2,0.6,0.2h3.3
	c0.1,0,0.2-0.1,0.2-0.2V407h-3.5l2.9-0.8C-215.2,406.1-215,406-214.9,405.9z M-210.4,404.6c-0.1,0-0.2,0.1-0.2,0.2l0,1.9
	c0,0.1-0.1,0.2-0.2,0.2c0,0-1.6,0-2.1,0c-0.1,0-0.2-0.1-0.2-0.2h0v-2.1h-0.6v0c-0.1,0-0.2,0.1-0.2,0.2v2.2c0,0.2,0.1,0.4,0.3,0.6
	c0.2,0.2,0.4,0.2,0.6,0.2h2.6c0.2,0,0.5-0.1,0.6-0.2c0.2-0.2,0.3-0.3,0.3-0.6v-2.4L-210.4,404.6L-210.4,404.6z M-200,406
	c0,0-0.1-0.1-0.2-0.1c-0.1,0-0.2,0-0.3-0.1v-0.4c0-0.2-0.1-0.4-0.3-0.6c-0.2-0.2-0.4-0.2-0.6-0.2h-2.6v0c-0.1,0-0.2,0.1-0.2,0.2v2.9
	h3.5c0.2,0,0.5-0.1,0.6-0.2c0.2-0.2,0.3-0.3,0.3-0.6c0,0,0-0.4,0-0.4C-199.7,406.4-199.8,406.1-200,406z M-203.2,405.4h1.1
	c0,0,0,0,0,0h0.6v0c0,0,0,0,0,0c0.1,0,0.2,0.1,0.2,0.2h0v0.1c0,0,0,0.1-0.1,0.1h-0.8c0,0,0,0,0,0h-1.1V405.4z M-200.6,406.9
	C-200.6,406.9-200.6,407-200.6,406.9l-0.7,0.1c0,0,0,0,0,0h-2v-0.4c0,0,2.4,0,2.4,0c0.1,0,0.2,0.1,0.2,0.2
	C-200.6,406.8-200.6,406.9-200.6,406.9z M-205,404.8c-0.2-0.2-0.4-0.2-0.6-0.2h-3.3c-0.1,0-0.2,0.1-0.2,0.2v2.9h0.7
	c0.1,0,0.2-0.1,0.2-0.2v-1l2.4,0c0.1,0,0.2,0.1,0.2,0.2v0.8c0,0,0,0,0,0v0.2h0.6l0,0h0c0.1,0,0.2-0.1,0.2-0.2V407
	c0-0.2-0.1-0.4-0.3-0.6c0.2-0.2,0.3-0.4,0.3-0.6v-0.4C-204.7,405.2-204.8,405-205,404.8z M-205.6,405.7
	C-205.6,405.8-205.6,405.8-205.6,405.7l-0.4,0.1v0h-2.2v-0.4l2.4,0v0c0,0,0,0,0,0c0.1,0,0.2,0.1,0.2,0.2
	C-205.6,405.6-205.6,405.7-205.6,405.7z"/>
<g>
	<path fill="#008CBA" d="M-257.8,403.1v-8h5.2v0.9h-4.2v2.6h4.2v0.9h-4.2v3.6H-257.8z"/>
	<path fill="#008CBA" d="M-251.6,400.2c0-1.7,1.1-3,2.9-3s2.9,1.4,2.9,3s-1.1,3-2.9,3S-251.6,401.9-251.6,400.2z M-246.8,400.2
		c0-1.2-0.7-2.2-1.9-2.2s-1.9,1.1-1.9,2.2c0,1.2,0.7,2.2,1.9,2.2S-246.8,401.4-246.8,400.2z"/>
	<path fill="#008CBA" d="M-240.5,403.1v-0.8c-0.4,0.5-1.2,1-2.1,1c-1.2,0-1.8-0.6-1.8-1.8v-4.1h0.9v3.8c0,1,0.5,1.3,1.3,1.3
		c0.7,0,1.4-0.4,1.7-0.9v-4.3h0.9v5.8H-240.5z"/>
	<path fill="#008CBA" d="M-233.9,403.1v-3.8c0-1-0.5-1.3-1.3-1.3c-0.7,0-1.4,0.4-1.7,0.9v4.2h-0.9v-5.8h0.9v0.8c0.4-0.5,1.2-1,2.1-1
		c1.2,0,1.8,0.6,1.8,1.9v4.1H-233.9z"/>
	<path fill="#008CBA" d="M-227,403.1v-0.9c-0.4,0.6-1.1,1-2,1c-1.5,0-2.6-1.2-2.6-3c0-1.8,1.1-3,2.6-3c0.8,0,1.5,0.4,2,1v-3.1h0.9v8
		H-227z M-227,401.5v-2.6c-0.3-0.5-1-0.9-1.7-0.9c-1.2,0-1.9,1-1.9,2.2s0.7,2.2,1.9,2.2C-228,402.4-227.3,402-227,401.5z"/>
	<path fill="#008CBA" d="M-220.7,403.1v-0.7c-0.5,0.5-1.1,0.8-1.9,0.8c-1,0-2-0.7-2-1.9c0-1.3,1-1.9,2-1.9c0.8,0,1.5,0.3,1.9,0.8v-1
		c0-0.8-0.6-1.2-1.5-1.2c-0.7,0-1.3,0.3-1.8,0.8l-0.4-0.6c0.6-0.6,1.4-1,2.3-1c1.2,0,2.2,0.6,2.2,2v4H-220.7z M-220.7,401.9v-1.1
		c-0.3-0.5-1-0.7-1.6-0.7c-0.8,0-1.4,0.5-1.4,1.3c0,0.7,0.6,1.3,1.4,1.3C-221.6,402.6-221,402.3-220.7,401.9z"/>
	<path fill="#008CBA" d="M-217.8,401.9v-3.8h-1v-0.8h1v-1.6h0.9v1.6h1.2v0.8h-1.2v3.6c0,0.4,0.2,0.7,0.6,0.7c0.3,0,0.5-0.1,0.6-0.2
		l0.3,0.7c-0.2,0.2-0.6,0.4-1.1,0.4C-217.4,403.2-217.8,402.7-217.8,401.9z"/>
	<path fill="#008CBA" d="M-214.6,395.9c0-0.3,0.3-0.6,0.6-0.6c0.3,0,0.6,0.3,0.6,0.6s-0.3,0.6-0.6,0.6
		C-214.3,396.5-214.6,396.2-214.6,395.9z M-214.4,403.1v-5.8h0.9v5.8H-214.4z"/>
	<path fill="#008CBA" d="M-212.1,400.2c0-1.7,1.1-3,2.9-3c1.8,0,2.9,1.4,2.9,3s-1.1,3-2.9,3C-211,403.2-212.1,401.9-212.1,400.2z
		 M-207.3,400.2c0-1.2-0.7-2.2-1.9-2.2s-1.9,1.1-1.9,2.2c0,1.2,0.7,2.2,1.9,2.2S-207.3,401.4-207.3,400.2z"/>
	<path fill="#008CBA" d="M-201,403.1v-3.8c0-1-0.5-1.3-1.3-1.3c-0.7,0-1.4,0.4-1.7,0.9v4.2h-0.9v-5.8h0.9v0.8c0.4-0.5,1.2-1,2.1-1
		c1.2,0,1.8,0.6,1.8,1.9v4.1H-201z"/>
</g>
</svg>
