<?xml version="1.0" encoding="utf-8"?>
<!-- Generator: Adobe Illustrator 18.1.1, SVG Export Plug-In . SVG Version: 6.00 Build 0)  -->
<!DOCTYPE svg PUBLIC "-//W3C//DTD SVG 1.1//EN" "http://www.w3.org/Graphics/SVG/1.1/DTD/svg11.dtd">
<svg version="1.1" id="Layer_1" xmlns="http://www.w3.org/2000/svg" xmlns:xlink="http://www.w3.org/1999/xlink" x="0px" y="0px"
	 viewBox="0 304 612 171" enable-background="new 0 304 612 171" xml:space="preserve">
<g>
	<path fill="#494849" d="M57.6,418.2c-0.5-0.7-0.7-2.5-0.7-4.5c0-1.6,0.5-2.7,0.7-2.9c4.3-0.7,6.3-1.1,8.6-1.8
		c4.1-0.9,5.4-3.2,5.7-8.4c0.7-12,0.7-34.7,0.5-50.5v-0.5c0-1.8,0-4.1-2-5.7c-3.2-2-7-3.9-12-5.2c-1.8-0.5-2.9-1.6-2.9-2.7
		c0-1.1,1.4-2.5,3.6-2.9c6.6-0.7,23.8-4.8,30.6-7.9c0.5,0.5,1.1,1.6,0.9,3.2c0,0.7,0,1.4-0.2,2.3c-0.2,2.3-0.5,4.8-0.5,7.3
		c0,0.7,0.9,1.4,1.6,1.4c0.5,0,0.9-0.2,1.1-0.5c12.9-10,24.5-13.6,30.4-13.6c9.7,0,17.2,4.8,23.1,14.3c0.5,0.5,0.9,0.7,1.4,0.7
		s0.9-0.2,1.1-0.7c11.8-9.1,23.6-14.3,31.5-14.3c18.6,0,29.7,13.8,29.7,37.2c0,6.6,0,15.2-0.2,23.1c0,7,0,13.4,0,17.9
		c0,1.1,1.4,4.1,3.6,4.8c2.7,1.4,6.6,2,11.6,2.9h0.2c0.5,1.4-0.5,6.6-1.1,7.5c-1.1,0-2.9,0-5-0.2c-3.9-0.2-9.1-0.5-15.2-0.5
		c-12.2,0-18.8,0.2-24.9,0.7c-0.5-1.6-0.7-6.6,0-7.5c3.6-0.7,5.4-1.1,7.5-1.8c3.9-1.4,5-3.2,5.2-8.4c0-3.6,0.9-36.3-0.5-44
		c-1.1-7.9-7.3-17.5-20.4-17.5c-5,0-12.9,2-20.4,7.7c-0.5,0.5-0.7,1.4-0.7,1.8v0.2c0.9,4.1,0.9,9.1,0.9,16.3c0,4.3,0,8.6,0,13.1
		c0,9.1,0,17.5,0,23.8c0,4.3,2.7,5.4,4.8,6.3c1.1,0.2,2,0.5,2.9,0.7c1.8,0.5,3.6,0.9,6.3,1.4c0.5,0.9,0.5,3.4,0,5.7
		c-0.2,1.1-0.7,1.8-0.7,1.8c-6.8-0.2-13.8-0.5-24-0.5c-3.2,0-8.2,0.2-12.5,0.2c-3.6,0-7,0.2-8.8,0.2c-0.2-0.5-0.7-1.8-0.7-3.9
		c0-1.8,0.5-3.2,0.7-3.6c0.9-0.2,1.8-0.2,2.7-0.5c2.5-0.5,4.5-0.7,6.3-1.4c3.4-1.1,4.5-2.9,4.8-7.3c0.7-10,1.1-38.8-0.2-45.8
		c-2.5-11.6-9.1-17.5-19.5-17.5c-6.1,0-14.1,2.9-20.4,7.7c-1.1,0.7-1.8,2.7-1.8,4.5c0,3.4,0,7.5,0,11.8c0,14.5,0,32.4,0.2,40.1
		c0.2,2.5,1.1,5.2,5.4,6.3c0.9,0.2,2.7,0.5,4.8,0.9c1.1,0.2,2.3,0.5,3.6,0.7c0.5,1.1,0.2,6.1-0.7,7.5c-2,0-4.3-0.2-7.3-0.2
		c-4.3-0.2-9.5-0.5-15.6-0.5c-7,0-12,0.2-16.1,0.5C62.1,418,59.8,418.2,57.6,418.2L57.6,418.2z"/>
	<g>
		<path d="M253.4,374.7c0,5,0.5,9.7,1.8,14.3c1.4,4.5,3.2,8.6,5.9,12.2c2.7,3.6,5.9,6.3,9.7,8.4s8.4,3.2,13.8,3.2
			c7.9,0,14.7-2.3,19.9-6.6c5.4-4.5,8.8-10.7,10.2-18.6h6.3c-1.6,10-5.7,17.7-12,22.9c-6.3,5.2-14.5,7.9-24.7,7.9
			c-6.1,0-11.6-1.1-16.3-3.4c-4.8-2.3-8.6-5.4-11.8-9.3c-3.2-3.9-5.4-8.4-7-13.6c-1.6-5.2-2.3-10.7-2.3-16.5s0.7-11.6,2-17
			c1.6-5.4,3.9-10.4,7-14.7s7-7.7,11.8-10.2c4.8-2.5,10.2-3.9,16.5-3.9c6.6,0,12.2,1.1,17.2,3.6c4.8,2.5,8.8,5.7,11.8,9.7
			c3.2,4.1,5.2,8.8,6.6,14.5c1.4,5.4,1.8,11.3,1.6,17.2h-68.2V374.7z M315.7,369.3c0-4.3-0.9-8.6-2.3-12.9
			c-1.4-4.1-3.4-7.9-6.1-10.9c-2.7-3.2-5.9-5.7-9.7-7.5c-3.9-1.8-8.2-2.9-12.9-2.9c-4.8,0-8.8,0.9-12.7,2.9c-3.6,2-6.8,4.5-9.5,7.9
			c-2.7,3.2-4.8,7-6.3,11.1s-2.5,8.4-2.7,12.5h62.3V369.3z"/>
	</g>
	<g>
		<polygon fill="#B4B4B4" points="396.7,327.1 353.8,342.1 360.6,398.3 396.7,418.2 433.2,398 440,341.8 		"/>
		<polygon fill="#A51E22" points="435.7,345 396.7,331.9 396.7,413.5 429.3,395.3 		"/>
		<polygon fill="#DC2226" points="358.6,345.2 364.5,395.5 396.7,413.5 396.7,331.9 		"/>
		<path fill="#F3F3F3" d="M407.3,375.1l-10.7,5h-11.3l-5.2,13.4l-10,0.2l26.5-58.9L407.3,375.1z M406.2,372.7l-9.5-19l-7.9,18.8h7.9
			L406.2,372.7z"/>
		<polygon fill="#B4B4B4" points="396.7,334.8 396.7,353.6 405.7,372.4 396.7,372.4 396.7,380.4 409.1,380.4 414.8,393.7 424.3,394 
					"/>
	</g>
	<path fill="#333333" d="M556.5,354.5c0-1.8-0.9-3.4-2.5-4.1l-39.4-22.7c-0.7-0.5-1.4-0.7-2.3-0.7h-0.5c-0.7,0-1.6,0.2-2.3,0.7
		l-39.4,22.7c-1.6,0.9-2.5,2.5-2.5,4.1v61.2c0,0.9,0.5,1.6,1.1,2c0.7,0.5,1.6,0.5,2.3,0l23.6-13.4c1.6-0.9,2.5-2.5,2.5-4.1v-28.8
		c0-1.8,0.9-3.2,2.5-4.1l10-5.7c0.7-0.5,1.6-0.7,2.5-0.7c0.9,0,1.6,0.2,2.3,0.7l10,5.7c1.6,0.9,2.5,2.5,2.5,4.1v28.6
		c0,1.8,0.9,3.2,2.5,4.1l23.6,13.4c0.7,0.5,1.6,0.5,2.5,0c0.7-0.5,1.1-1.1,1.1-2V354.5z"/>
</g>
<g>
	<path d="M410.2,446.7c-0.4,2.1-1.3,3.7-2.8,4.8c-1.4,1.1-3.2,1.7-5.4,1.7c-1.5,0-2.9-0.3-4-0.8c-1.1-0.5-2.1-1.2-2.8-2.1
		c-0.8-0.9-1.3-2-1.7-3.2c-0.4-1.2-0.6-2.6-0.6-4c0-1.4,0.2-2.8,0.7-4c0.4-1.2,1.1-2.3,1.9-3.2c0.8-0.9,1.8-1.6,2.9-2.1
		c1.1-0.5,2.3-0.7,3.6-0.7c1.7,0,3.1,0.4,4.2,1.1c1.1,0.7,2,1.6,2.7,2.7c0.7,1.1,1.1,2.3,1.4,3.6c0.3,1.3,0.4,2.5,0.3,3.7h-14.3
		c0,0.8,0.1,1.6,0.3,2.4c0.2,0.8,0.6,1.4,1.1,2c0.5,0.6,1.1,1,1.9,1.4c0.8,0.3,1.7,0.5,2.7,0.5c1.3,0,2.4-0.3,3.3-0.9
		c0.9-0.6,1.4-1.6,1.7-2.8H410.2z M407.1,441.4c0-0.7-0.2-1.4-0.5-2.1c-0.3-0.7-0.7-1.2-1.1-1.7c-0.5-0.5-1.1-0.9-1.7-1.1
		c-0.7-0.3-1.4-0.4-2.1-0.4c-0.8,0-1.5,0.1-2.2,0.4c-0.7,0.3-1.2,0.7-1.7,1.2c-0.5,0.5-0.8,1.1-1.1,1.7c-0.3,0.7-0.4,1.4-0.5,2.1
		H407.1z"/>
	<path d="M413.7,433.6h3v3h0.1c0.7-1.2,1.5-2.1,2.6-2.6c1-0.6,2.3-0.9,3.6-0.9c1.3,0,2.3,0.2,3.1,0.5c0.8,0.3,1.5,0.8,2,1.4
		c0.5,0.6,0.9,1.4,1.1,2.2s0.3,1.8,0.3,2.8v12.6h-3.1v-13c0-1.2-0.3-2.1-1-2.8c-0.7-0.7-1.6-1-2.9-1c-1,0-1.8,0.1-2.5,0.4
		c-0.7,0.3-1.3,0.7-1.8,1.3c-0.5,0.5-0.8,1.2-1.1,1.9c-0.2,0.7-0.4,1.5-0.4,2.4v10.8h-3.1V433.6z"/>
	<path d="M438.7,433.6h3.8v2.8h-3.8v11.9c0,0.4,0,0.7,0.1,0.9c0.1,0.2,0.2,0.4,0.4,0.5c0.2,0.1,0.4,0.2,0.7,0.2s0.7,0.1,1.2,0.1h1.4
		v2.8h-2.4c-0.8,0-1.5-0.1-2.1-0.2c-0.6-0.1-1-0.3-1.4-0.6c-0.4-0.3-0.6-0.7-0.8-1.3c-0.2-0.5-0.3-1.3-0.3-2.1v-12.2h-3.3v-2.8h3.3
		v-5.7h3.1V433.6z"/>
	<path d="M462.3,446.7c-0.4,2.1-1.3,3.7-2.8,4.8c-1.4,1.1-3.2,1.7-5.4,1.7c-1.5,0-2.9-0.3-4-0.8c-1.1-0.5-2.1-1.2-2.8-2.1
		c-0.8-0.9-1.3-2-1.7-3.2c-0.4-1.2-0.6-2.6-0.6-4c0-1.4,0.2-2.8,0.7-4c0.4-1.2,1.1-2.3,1.9-3.2c0.8-0.9,1.8-1.6,2.9-2.1
		c1.1-0.5,2.3-0.7,3.6-0.7c1.7,0,3.1,0.4,4.2,1.1c1.1,0.7,2,1.6,2.7,2.7c0.7,1.1,1.1,2.3,1.4,3.6c0.3,1.3,0.4,2.5,0.3,3.7h-14.3
		c0,0.8,0.1,1.6,0.3,2.4c0.2,0.8,0.6,1.4,1.1,2c0.5,0.6,1.1,1,1.9,1.4c0.8,0.3,1.7,0.5,2.7,0.5c1.3,0,2.4-0.3,3.3-0.9
		c0.9-0.6,1.4-1.6,1.7-2.8H462.3z M459.2,441.4c0-0.7-0.2-1.4-0.5-2.1c-0.3-0.7-0.7-1.2-1.1-1.7c-0.5-0.5-1.1-0.9-1.7-1.1
		c-0.7-0.3-1.4-0.4-2.1-0.4c-0.8,0-1.5,0.1-2.2,0.4c-0.7,0.3-1.2,0.7-1.7,1.2c-0.5,0.5-0.8,1.1-1.1,1.7c-0.3,0.7-0.4,1.4-0.5,2.1
		H459.2z"/>
	<path d="M465.7,433.6h3v4h0.1c0.8-1.6,1.7-2.7,2.8-3.4c1.1-0.7,2.5-1.1,4.2-1v3.3c-1.3,0-2.3,0.2-3.2,0.5s-1.6,0.9-2.1,1.5
		s-0.9,1.5-1.2,2.4s-0.4,2-0.4,3.3v8.5h-3.1V433.6z"/>
	<path d="M478.3,433.6h3.1v2.6h0.1c0.5-1.1,1.3-1.8,2.4-2.3c1.1-0.5,2.3-0.7,3.7-0.7c1.5,0,2.8,0.3,3.9,0.8c1.1,0.5,2,1.3,2.7,2.2
		c0.7,0.9,1.3,2,1.6,3.2c0.4,1.2,0.6,2.5,0.6,3.9s-0.2,2.6-0.5,3.9c-0.4,1.2-0.9,2.3-1.6,3.2c-0.7,0.9-1.6,1.6-2.7,2.1
		s-2.4,0.8-3.8,0.8c-0.5,0-1,0-1.6-0.1s-1.1-0.3-1.7-0.5c-0.6-0.2-1.1-0.5-1.6-0.9s-0.9-0.9-1.3-1.4h-0.1v9.9h-3.1V433.6z
		 M492.7,440.4c-0.2-0.9-0.6-1.6-1.1-2.3s-1.1-1.2-1.9-1.6s-1.6-0.6-2.6-0.6c-1.1,0-2,0.2-2.7,0.6s-1.3,1-1.8,1.6
		c-0.5,0.7-0.8,1.5-1,2.3c-0.2,0.9-0.3,1.7-0.3,2.6c0,0.9,0.1,1.8,0.3,2.7c0.2,0.9,0.6,1.6,1.1,2.3c0.5,0.7,1.1,1.2,1.9,1.6
		c0.8,0.4,1.7,0.6,2.8,0.6c1.1,0,2-0.2,2.7-0.6c0.7-0.4,1.3-1,1.8-1.7c0.4-0.7,0.8-1.5,1-2.4s0.3-1.8,0.3-2.7
		C493.1,442.1,493,441.3,492.7,440.4z"/>
	<path d="M500,433.6h3v4h0.1c0.8-1.6,1.7-2.7,2.8-3.4c1.1-0.7,2.5-1.1,4.2-1v3.3c-1.3,0-2.3,0.2-3.2,0.5s-1.6,0.9-2.1,1.5
		s-0.9,1.5-1.2,2.4s-0.4,2-0.4,3.3v8.5H500V433.6z"/>
	<path d="M515.8,430.2h-3.1v-3.9h3.1V430.2z M512.6,433.6h3.1v19.1h-3.1V433.6z"/>
	<path d="M522.6,446.7c0,0.7,0.2,1.3,0.5,1.8c0.3,0.5,0.7,0.8,1.2,1.1c0.5,0.3,1,0.5,1.6,0.6c0.6,0.1,1.2,0.2,1.9,0.2
		c0.5,0,1,0,1.6-0.1c0.5-0.1,1-0.2,1.5-0.4c0.5-0.2,0.8-0.5,1.1-0.9c0.3-0.4,0.4-0.9,0.4-1.4c0-0.6-0.2-1.1-0.5-1.5
		c-0.4-0.4-0.8-0.7-1.4-0.9s-1.2-0.4-2-0.6c-0.8-0.2-1.5-0.3-2.3-0.5s-1.6-0.4-2.3-0.6c-0.7-0.2-1.4-0.6-2-1
		c-0.6-0.4-1.1-0.9-1.4-1.5c-0.4-0.6-0.5-1.4-0.5-2.3c0-1,0.2-1.8,0.6-2.5c0.4-0.7,1-1.3,1.7-1.7c0.7-0.4,1.4-0.8,2.3-1
		c0.9-0.2,1.7-0.3,2.5-0.3c1.1,0,2.1,0.1,3,0.3c0.9,0.2,1.7,0.5,2.4,1c0.7,0.5,1.3,1.1,1.7,1.9c0.4,0.8,0.7,1.7,0.7,2.9h-3.1
		c0-0.6-0.2-1.1-0.5-1.5c-0.3-0.4-0.6-0.7-1-1c-0.4-0.2-0.9-0.4-1.4-0.5s-1-0.2-1.5-0.2c-0.5,0-0.9,0-1.4,0.1s-0.9,0.2-1.3,0.4
		s-0.7,0.4-1,0.8c-0.2,0.3-0.4,0.7-0.4,1.2c0,0.6,0.2,1,0.6,1.4c0.4,0.3,0.9,0.6,1.5,0.9c0.6,0.2,1.3,0.4,2,0.6
		c0.7,0.2,1.5,0.3,2.2,0.5c0.8,0.2,1.6,0.4,2.3,0.6c0.8,0.2,1.4,0.6,2,1s1,0.9,1.4,1.5c0.4,0.6,0.5,1.4,0.5,2.3
		c0,1.1-0.2,2.1-0.7,2.9c-0.5,0.8-1.1,1.4-1.9,1.9c-0.8,0.5-1.7,0.8-2.6,1c-1,0.2-1.9,0.3-2.9,0.3c-1.1,0-2.1-0.1-3.1-0.4
		s-1.8-0.6-2.5-1.1c-0.7-0.5-1.3-1.2-1.8-2c-0.4-0.8-0.7-1.8-0.7-3H522.6z"/>
	<path d="M555.5,446.7c-0.4,2.1-1.3,3.7-2.8,4.8c-1.4,1.1-3.2,1.7-5.4,1.7c-1.5,0-2.9-0.3-4-0.8c-1.1-0.5-2.1-1.2-2.8-2.1
		c-0.8-0.9-1.3-2-1.7-3.2c-0.4-1.2-0.6-2.6-0.6-4c0-1.4,0.2-2.8,0.7-4c0.4-1.2,1.1-2.3,1.9-3.2c0.8-0.9,1.8-1.6,2.9-2.1
		c1.1-0.5,2.3-0.7,3.6-0.7c1.7,0,3.1,0.4,4.2,1.1c1.1,0.7,2,1.6,2.7,2.7c0.7,1.1,1.1,2.3,1.4,3.6c0.3,1.3,0.4,2.5,0.3,3.7h-14.3
		c0,0.8,0.1,1.6,0.3,2.4c0.2,0.8,0.6,1.4,1.1,2c0.5,0.6,1.1,1,1.9,1.4c0.8,0.3,1.7,0.5,2.7,0.5c1.3,0,2.4-0.3,3.3-0.9
		c0.9-0.6,1.4-1.6,1.7-2.8H555.5z M552.5,441.4c0-0.7-0.2-1.4-0.5-2.1c-0.3-0.7-0.7-1.2-1.1-1.7c-0.5-0.5-1.1-0.9-1.7-1.1
		c-0.7-0.3-1.4-0.4-2.1-0.4c-0.8,0-1.5,0.1-2.2,0.4c-0.7,0.3-1.2,0.7-1.7,1.2c-0.5,0.5-0.8,1.1-1.1,1.7c-0.3,0.7-0.4,1.4-0.5,2.1
		H552.5z"/>
</g>
</svg>
