<?xml version="1.0" encoding="utf-8"?>
<!-- Generator: Adobe Illustrator 18.1.1, SVG Export Plug-In . SVG Version: 6.00 Build 0)  -->
<!DOCTYPE svg PUBLIC "-//W3C//DTD SVG 1.1//EN" "http://www.w3.org/Graphics/SVG/1.1/DTD/svg11.dtd">
<svg version="1.1" id="Layer_1" xmlns="http://www.w3.org/2000/svg" xmlns:xlink="http://www.w3.org/1999/xlink" x="0px" y="0px"
	 viewBox="-260.2 391.9 62.4 17.8" enable-background="new -260.2 391.9 62.4 17.8" xml:space="preserve">
<g>
	
		<linearGradient id="SVGID_1_" gradientUnits="userSpaceOnUse" x1="-877.153" y1="-436.6643" x2="-882.1322" y2="-436.6983" gradientTransform="matrix(-0.9771 -0.323 0.2901 -0.8773 -986.3241 -265.4468)">
		<stop  offset="0.2308" style="stop-color:#979675"/>
		<stop  offset="0.5632" style="stop-color:#999877"/>
		<stop  offset="0.6829" style="stop-color:#9E9D7E"/>
		<stop  offset="0.7683" style="stop-color:#A8A789"/>
		<stop  offset="0.8373" style="stop-color:#B6B49A"/>
		<stop  offset="0.8964" style="stop-color:#C8C6B0"/>
		<stop  offset="0.9482" style="stop-color:#DEDCCB"/>
		<stop  offset="0.9944" style="stop-color:#F7F5EB"/>
		<stop  offset="1" style="stop-color:#FBF9EF"/>
	</linearGradient>
	<path fill="url(#SVGID_1_)" d="M-253.1,408.7l-0.4-0.1c0,0,0.1-2.1-0.7-2.3c-0.5-0.6,0.1-25.2,1.9-0.1c0,0-0.6,0.3-0.8,0.9
		C-253.2,407.6-253.1,408.7-253.1,408.7z"/>
	
		<linearGradient id="SVGID_2_" gradientUnits="userSpaceOnUse" x1="-876.3861" y1="-427.9498" x2="-883.5496" y2="-440.3573" gradientTransform="matrix(-0.9771 -0.323 0.2901 -0.8773 -986.3241 -265.4468)">
		<stop  offset="0" style="stop-color:#48A548"/>
		<stop  offset="1" style="stop-color:#3D9043"/>
	</linearGradient>
	<path fill="url(#SVGID_2_)" d="M-252.9,406.6c0,0,3.7-2.4,2.8-7.4c-0.8-3.6-2.8-4.8-3-5.3c-0.2-0.3-0.5-0.9-0.5-0.9l0.2,10.2
		C-253.4,403.1-253.7,406.2-252.9,406.6z"/>
	
		<linearGradient id="SVGID_3_" gradientUnits="userSpaceOnUse" x1="-875.7299" y1="-436.8691" x2="-880.8075" y2="-433.4585" gradientTransform="matrix(-0.9771 -0.323 0.2901 -0.8773 -986.3241 -265.4468)">
		<stop  offset="0" style="stop-color:#40A248"/>
		<stop  offset="0.3523" style="stop-color:#4AA74B"/>
		<stop  offset="0.9557" style="stop-color:#66B452"/>
		<stop  offset="1" style="stop-color:#68B553"/>
	</linearGradient>
	<path fill="url(#SVGID_3_)" d="M-253.8,406.7c0,0-3.4-2.3-3.2-6.5c0.2-4.1,2.6-6.2,3.1-6.6c0.3-0.3,0.3-0.5,0.3-0.8
		c0.2,0.5,0.2,6.9,0.2,7.6C-253.3,403.5-253.5,406.2-253.8,406.7z"/>
	<path fill="#C0BEBD" d="M-214.5,399c0.2,0,0.9,0,1.3,0c0.6,0,1.1,0,2.3,0c1,0,1.9,0.3,2.5,0.8c0.7,0.6,1.1,1.5,1.1,2.6
		c0,1.5-0.7,2.4-1.4,2.9c-0.7,0.5-1.6,0.8-2.9,0.8c-0.7,0-1.9,0-2.9,0h0c0-0.1,0.1-0.4,0.2-0.5c0.3,0,0.3,0,0.5-0.1
		c0.2-0.1,0.3-0.2,0.3-0.6c0-0.7,0-1.6,0-2.5c0-0.7,0-2,0-2.5c0-0.4-0.2-0.4-0.5-0.5c-0.2,0-0.4-0.1-0.6-0.1
		C-214.7,399.4-214.5,399.1-214.5,399z M-212.2,405.4c0.2,0.2,0.7,0.3,1.2,0.3c0.6,0,1.1-0.1,1.6-0.6c0.5-0.5,0.9-1.2,0.9-2.5
		c0-1.2-0.4-2.1-1.3-2.6c-0.5-0.3-1.2-0.4-1.9-0.4c-0.2,0-0.4,0-0.6,0.1c0,0-0.1,0.1-0.1,0.2c0,0.2,0,1.8,0,2.7c0,1,0,2.3,0,2.4
		C-212.4,405.1-212.3,405.3-212.2,405.4z"/>
	<path fill="#C0BEBD" d="M-206.3,399c0.1,0,0.4,0,1.2,0c0.7,0,1.3,0,2.1,0c0.9,0,2.1,0.3,2.1,1.6c0,0.7-0.5,1.2-1.1,1.4c0,0,0,0,0,0
		c0.9,0.2,1.6,0.7,1.6,1.8c0,1-0.6,1.6-1.5,2c-0.5,0.2-1.2,0.3-1.9,0.3c-0.5,0-1.9-0.1-2.7,0c-0.1,0,0.1-0.4,0.1-0.5
		c0.2,0,0.3,0,0.5-0.1c0.3-0.1,0.3-0.2,0.3-0.6c0-0.4,0-1.6,0-2.5c0-1.2,0-2.1,0-2.5c0-0.3-0.1-0.4-0.3-0.5c-0.2,0-0.5-0.1-0.7-0.1
		C-206.5,399.4-206.3,399.1-206.3,399z M-201.5,404.2c0-1-0.7-1.6-2.1-1.6c-0.1,0-0.5,0-0.6,0c0,0-0.1,0-0.1,0.1c0,0.7,0,1.9,0,2.3
		c0,0.2,0.2,0.5,0.3,0.5c0.2,0.1,0.6,0.1,0.9,0.1C-202.3,405.7-201.5,405.2-201.5,404.2z M-204.2,399.6c0,0-0.1,0.1-0.1,0.2
		c0,0.4,0,1.5,0,2.2c0,0,0,0.1,0.1,0.1c0.2,0,0.5,0,0.8,0c0.4,0,0.7-0.1,0.8-0.1c0.4-0.2,0.5-0.6,0.5-1c0-1-0.7-1.4-1.7-1.4
		C-203.8,399.6-204,399.6-204.2,399.6z"/>
	<path fill="#484748" d="M-247.8,406.2c0,0,0-0.1,0-0.2c0-0.1,0-0.1,0-0.2c0.2,0,0.3-0.1,0.4-0.1c0.2-0.1,0.3-0.2,0.3-0.4
		c0-0.6,0-1.8,0-2.6l0,0c0-0.1,0-0.2-0.1-0.3c-0.2-0.1-0.4-0.2-0.6-0.3c-0.1,0-0.2-0.1-0.1-0.1c0-0.1,0.1-0.1,0.2-0.2
		c0.3,0,1.2-0.2,1.6-0.4c0,0,0.1,0.1,0,0.2c0,0,0,0.1,0,0.1c0,0.1,0,0.2,0,0.4c0,0,0,0.1,0.1,0.1c0,0,0,0,0.1,0
		c0.7-0.5,1.2-0.7,1.6-0.7c0.5,0,0.9,0.2,1.2,0.7c0,0,0,0,0.1,0c0,0,0,0,0.1,0c0.6-0.5,1.2-0.7,1.6-0.7c0.9,0,1.5,0.7,1.5,1.9
		c0,0.3,0,0.8,0,1.2c0,0.4,0,0.7,0,0.9c0,0.1,0.1,0.2,0.2,0.2c0.1,0.1,0.3,0.1,0.6,0.1l0,0c0,0.1,0,0.3-0.1,0.4c-0.1,0-0.1,0-0.3,0
		c-0.2,0-0.5,0-0.8,0c-0.6,0-1,0-1.3,0c0-0.1,0-0.3,0-0.4c0.2,0,0.3-0.1,0.4-0.1c0.2-0.1,0.3-0.2,0.3-0.4c0-0.2,0-1.9,0-2.3
		c-0.1-0.4-0.4-0.9-1-0.9c-0.3,0-0.7,0.1-1,0.4c0,0,0,0.1,0,0.1l0,0c0,0.2,0,0.5,0,0.8c0,0.2,0,0.4,0,0.7c0,0.5,0,0.9,0,1.2
		c0,0.2,0.1,0.3,0.2,0.3c0.1,0,0.1,0,0.2,0c0.1,0,0.2,0,0.3,0.1c0,0,0,0.2,0,0.3c0,0.1,0,0.1,0,0.1c-0.4,0-0.7,0-1.2,0
		c-0.2,0-0.4,0-0.6,0c-0.2,0-0.4,0-0.5,0c0,0,0-0.1,0-0.2c0-0.1,0-0.2,0-0.2c0,0,0.1,0,0.1,0c0.1,0,0.2,0,0.3-0.1
		c0.2-0.1,0.2-0.1,0.2-0.4c0-0.5,0.1-2,0-2.3c-0.1-0.6-0.5-0.9-1-0.9c-0.3,0-0.7,0.2-1,0.4c-0.1,0-0.1,0.1-0.1,0.2
		c0,0.2,0,0.4,0,0.6c0,0.7,0,1.7,0,2.1c0,0.1,0.1,0.3,0.3,0.3c0.1,0,0.1,0,0.2,0c0.1,0,0.1,0,0.2,0c0,0.1,0,0.3,0,0.4
		c-0.1,0-0.2,0-0.4,0c-0.2,0-0.5,0-0.8,0c-0.4,0-0.6,0-0.8,0C-247.5,406.2-247.6,406.2-247.8,406.2L-247.8,406.2z"/>
	<path fill="#484748" d="M-236.1,406.3c-1.7,0-2.4-1.3-2.4-2.5c0-0.8,0.3-1.5,1-1.9c0.5-0.3,1.1-0.5,1.6-0.5c1.3,0,2.3,1,2.3,2.3
		c0,0.9-0.4,1.7-1.1,2.1C-235,406.1-235.6,406.3-236.1,406.3L-236.1,406.3z M-236.3,401.9c-0.2,0-0.4,0.1-0.6,0.2
		c-0.4,0.2-0.6,0.7-0.6,1.5c0,1.3,0.7,2.3,1.6,2.3c0.3,0,0.5-0.1,0.7-0.2c0.3-0.2,0.5-0.7,0.5-1.4
		C-234.6,402.8-235.3,401.9-236.3,401.9L-236.3,401.9z"/>
	<path fill="#484748" d="M-218,406.3c-1.7,0-2.4-1.3-2.4-2.5c0-0.8,0.3-1.5,1-1.9c0.5-0.3,1.1-0.5,1.6-0.5c1.3,0,2.3,1,2.3,2.3
		c0,0.9-0.4,1.7-1.1,2.1C-217,406.1-217.5,406.3-218,406.3L-218,406.3z M-218.2,401.9c-0.2,0-0.4,0.1-0.6,0.2
		c-0.4,0.2-0.6,0.7-0.6,1.5c0,1.3,0.7,2.3,1.6,2.3c0.3,0,0.5-0.1,0.7-0.2c0.3-0.2,0.5-0.7,0.5-1.4
		C-216.6,402.8-217.2,401.9-218.2,401.9L-218.2,401.9z"/>
	<path fill="#484748" d="M-224,409.1c-0.6,0-1.1-0.1-1.5-0.4c-0.4-0.3-0.5-0.7-0.5-1c0-0.1,0-0.3,0.2-0.5c0.1-0.1,0.4-0.4,0.9-0.8
		c0,0,0,0,0,0c0,0,0,0,0,0c-0.5-0.2-0.6-0.5-0.7-0.6c0,0,0,0,0,0c0-0.1,0-0.1,0.1-0.2c0.1,0,0.2-0.1,0.3-0.2
		c0.2-0.1,0.4-0.2,0.5-0.3c0,0,0,0,0-0.1c0,0,0,0,0-0.1c-0.7-0.2-1.1-0.8-1.1-1.6c0-0.5,0.2-1,0.7-1.3c0.3-0.2,1-0.5,1.5-0.5l0,0
		c0.5,0,0.7,0.1,1.1,0.2c0.2,0.1,0.4,0.1,0.7,0.1c0.4,0,0.6-0.1,0.7-0.3c0,0,0,0.1,0,0.2c0,0.1,0,0.3-0.1,0.5
		c-0.1,0.1-0.3,0.2-0.4,0.2c0,0,0,0-0.1,0c-0.2,0-0.3,0-0.3,0l0,0c0,0,0,0,0,0.1c0,0,0,0,0,0c0,0.1,0.1,0.4,0.1,0.4
		c0,0.8-0.3,1.2-0.7,1.5c-0.3,0.3-0.7,0.4-1.2,0.5h0c0,0-0.1,0-0.1,0c-0.1,0-0.1,0-0.1,0l0,0c-0.1,0-0.3,0.1-0.3,0.3
		c0,0.1,0.1,0.3,0.5,0.4c0.1,0,0.2,0,0.3,0c0.6,0,1.3,0.1,1.7,0.2c0.5,0.2,0.8,0.6,0.8,1.1c0,0.8-0.5,1.5-1.4,1.9
		C-223.1,409-223.6,409.1-224,409.1L-224,409.1z M-224.1,406.4c-0.2,0-0.3,0.1-0.4,0.1c-0.4,0.3-0.6,0.5-0.6,0.9
		c0,0.3,0.1,0.5,0.4,0.7c0.3,0.3,0.7,0.4,1.2,0.4c1,0,1.5-0.6,1.5-1.1c0-0.4-0.2-0.6-0.6-0.8C-223,406.5-223.5,406.4-224.1,406.4
		L-224.1,406.4z M-224,401.9c-0.5,0-0.9,0.4-0.9,1.1c0,0.7,0.3,1.4,1.1,1.4c0.1,0,0.4-0.1,0.5-0.2c0.2-0.2,0.3-0.5,0.3-0.9
		C-222.9,402.4-223.3,401.9-224,401.9L-224,401.9z"/>
	<path fill="#484748" d="M-226.9,405.8c-0.3,0-0.4-0.1-0.7-0.2c0,0-0.1-0.1-0.1-0.2c0-0.4,0-1.4,0-2.1c0-0.5-0.1-1-0.3-1.4
		c-0.3-0.4-0.7-0.6-1.2-0.6c-0.5,0-1.1,0.3-1.6,0.7c0,0-0.1,0.1-0.1,0c0-0.1,0-0.3,0-0.5c0-0.1-0.1-0.2-0.1-0.2
		c-0.3,0.2-1.2,0.4-1.6,0.4c-0.2,0-0.3,0.3,0,0.4v0c0,0,0,0,0,0c0.3,0.1,0.5,0.2,0.6,0.3c0.1,0.1,0.1,0.2,0.1,0.3c0,0.8,0,1.9,0,2.6
		c0,0.3-0.1,0.3-0.3,0.4l0,0c-0.1,0-0.3,0.1-0.4,0.1c-0.1,0.1-0.1,0.4,0,0.5c0.1,0,0.7,0,1.2,0c0.7,0,1,0,1.2,0
		c0.1-0.1,0.1-0.4,0-0.5c-0.2,0-0.3,0-0.5-0.1c-0.2,0-0.2-0.1-0.2-0.3c0-0.5,0-1.7,0-2.5c0-0.2,0.1-0.3,0.1-0.4
		c0.2-0.2,0.6-0.3,1-0.3c0.3,0,0.5,0.1,0.7,0.2c0.2,0.2,0.3,0.4,0.3,0.6c0,0.4,0,1.3,0,2.1c0,0.4,0,0.5-0.2,0.6
		c-0.1,0-0.3,0.1-0.5,0.1c-0.1,0.1,0,0.4,0,0.5c0.3,0,0.6,0,1.2,0c0.6,0,1,0,1.2,0C-226.8,406.2-226.8,405.9-226.9,405.8z"/>
</g>
</svg>
