<?xml version="1.0" encoding="utf-8"?>
<!-- Generator: Adobe Illustrator 18.1.1, SVG Export Plug-In . SVG Version: 6.00 Build 0)  -->
<!DOCTYPE svg PUBLIC "-//W3C//DTD SVG 1.1//EN" "http://www.w3.org/Graphics/SVG/1.1/DTD/svg11.dtd">
<svg version="1.1" id="Layer_1" xmlns="http://www.w3.org/2000/svg" xmlns:xlink="http://www.w3.org/1999/xlink" x="0px" y="0px"
	 viewBox="-260.2 391.9 62.4 17.8" enable-background="new -260.2 391.9 62.4 17.8" xml:space="preserve">
<g>
	<path fill-rule="evenodd" clip-rule="evenodd" fill="#333333" d="M-247.7,401.2c0-0.2-0.1-0.3-0.2-0.4l-3.6-2.1
		c-0.1,0-0.1-0.1-0.2-0.1c0,0,0,0,0,0c-0.1,0-0.1,0-0.2,0.1l-3.6,2.1c-0.1,0.1-0.2,0.2-0.2,0.4l0,5.6c0,0.1,0,0.1,0.1,0.2
		c0.1,0,0.1,0,0.2,0l2.1-1.2c0.1-0.1,0.2-0.2,0.2-0.4v-2.6c0-0.2,0.1-0.3,0.2-0.4l0.9-0.5c0.1,0,0.1-0.1,0.2-0.1
		c0.1,0,0.2,0,0.2,0.1l0.9,0.5c0.1,0.1,0.2,0.2,0.2,0.4v2.6c0,0.2,0.1,0.3,0.2,0.4l2.1,1.2c0.1,0,0.2,0,0.2,0c0.1,0,0.1-0.1,0.1-0.2
		L-247.7,401.2z"/>
	<path fill-rule="evenodd" clip-rule="evenodd" fill="#333333" d="M-228.5,393.6c-0.1,0-0.1,0-0.2,0c-0.1,0-0.1,0.1-0.1,0.2v5.5
		c0,0.1,0,0.1-0.1,0.1c0,0-0.1,0-0.2,0l-0.9-0.5c-0.1-0.1-0.3-0.1-0.4,0l-3.6,2.1c-0.1,0.1-0.2,0.2-0.2,0.4v4.2
		c0,0.2,0.1,0.3,0.2,0.4l3.6,2.1c0.1,0.1,0.3,0.1,0.4,0l3.6-2.1c0.1-0.1,0.2-0.2,0.2-0.4v-10.3c0-0.2-0.1-0.3-0.2-0.4L-228.5,393.6z
		 M-228.8,404.1C-228.8,404.2-228.9,404.2-228.8,404.1l-1.3,0.8c0,0-0.1,0-0.1,0l-1.2-0.7c0,0-0.1-0.1-0.1-0.1v-1.4
		c0,0,0-0.1,0.1-0.1l1.2-0.7c0,0,0.1,0,0.1,0l1.2,0.7c0,0,0.1,0.1,0.1,0.1V404.1z"/>
	<path fill-rule="evenodd" clip-rule="evenodd" fill="#333333" d="M-215.6,402.7c0.1-0.1,0.2-0.2,0.2-0.4v-1c0-0.2-0.1-0.3-0.2-0.4
		l-3.6-2.1c-0.1-0.1-0.3-0.1-0.4,0l-3.6,2.1c-0.1,0.1-0.2,0.2-0.2,0.4v4.1c0,0.2,0.1,0.3,0.2,0.4l3.6,2c0.1,0.1,0.3,0.1,0.4,0
		l2.2-1.2c0.1,0,0.1-0.1,0.1-0.2c0-0.1,0-0.2-0.1-0.2l-3.6-2.1c-0.1,0-0.1-0.1-0.1-0.2v-1.3c0-0.1,0-0.1,0.1-0.2l1.1-0.6
		c0.1,0,0.1,0,0.2,0l1.1,0.6c0.1,0,0.1,0.1,0.1,0.2v1c0,0.1,0,0.1,0.1,0.2c0.1,0,0.2,0,0.2,0L-215.6,402.7z"/>
	<path fill-rule="evenodd" clip-rule="evenodd" fill="#80BD01" d="M-241.2,398.8c0.1-0.1,0.3-0.1,0.4,0l3.6,2.1
		c0.1,0.1,0.2,0.2,0.2,0.4v4.2c0,0.2-0.1,0.3-0.2,0.4l-3.6,2.1c-0.1,0.1-0.3,0.1-0.4,0l-3.6-2.1c-0.1-0.1-0.2-0.2-0.2-0.4v-4.2
		c0-0.2,0.1-0.3,0.2-0.4L-241.2,398.8z"/>
	<path fill="#80BD01" d="M-208.7,407.9c-0.1,0-0.2,0-0.4-0.1l-1.1-0.7c-0.2-0.1-0.1-0.1,0-0.1c0.2-0.1,0.3-0.1,0.5-0.2
		c0,0,0.1,0,0.1,0l0.9,0.5c0,0,0.1,0,0.1,0l3.4-2c0,0,0.1-0.1,0.1-0.1v-3.9c0,0,0-0.1-0.1-0.1l-3.4-2c0,0-0.1,0-0.1,0l-3.4,2
		c0,0-0.1,0.1-0.1,0.1v3.9c0,0,0,0.1,0.1,0.1l0.9,0.5c0.5,0.3,0.8,0,0.8-0.3v-3.9c0-0.1,0-0.1,0.1-0.1h0.4c0.1,0,0.1,0,0.1,0.1v3.9
		c0,0.7-0.4,1.1-1,1.1c-0.2,0-0.4,0-0.8-0.2l-0.9-0.5c-0.2-0.1-0.4-0.4-0.4-0.6v-3.9c0-0.3,0.1-0.5,0.4-0.6l3.4-2
		c0.2-0.1,0.5-0.1,0.7,0l3.4,2c0.2,0.1,0.4,0.4,0.4,0.6v3.9c0,0.3-0.1,0.5-0.4,0.6l-3.4,2C-208.4,407.9-208.5,407.9-208.7,407.9z"/>
	<path fill="#80BD01" d="M-207.6,405.2c-1.5,0-1.8-0.7-1.8-1.3c0-0.1,0-0.1,0.1-0.1h0.4c0,0,0.1,0,0.1,0.1c0.1,0.4,0.3,0.7,1.2,0.7
		c0.7,0,1-0.2,1-0.5c0-0.2-0.1-0.4-1.2-0.5c-0.9-0.1-1.5-0.3-1.5-1c0-0.7,0.6-1.1,1.5-1.1c1.1,0,1.6,0.4,1.7,1.2c0,0,0,0.1,0,0.1
		c0,0,0,0-0.1,0h-0.4c0,0-0.1,0-0.1-0.1c-0.1-0.5-0.4-0.6-1.1-0.6c-0.8,0-0.9,0.3-0.9,0.5c0,0.2,0.1,0.3,1.2,0.5
		c1,0.1,1.5,0.3,1.5,1.1C-205.9,404.8-206.5,405.2-207.6,405.2z"/>
	<path fill-rule="evenodd" clip-rule="evenodd" fill="#80BD01" d="M-219.5,402.5C-219.5,402.5-219.4,402.5-219.5,402.5l0.8,0.4
		c0,0,0,0,0,0.1v0.8c0,0,0,0.1,0,0.1l-0.7,0.4c0,0-0.1,0-0.1,0l-0.7-0.4c0,0,0,0,0-0.1V403c0,0,0-0.1,0-0.1L-219.5,402.5z"/>
	<g>
		<path fill="#80BD01" d="M-202.2,399.8c0,0.4-0.3,0.7-0.7,0.7c-0.4,0-0.7-0.3-0.7-0.7c0-0.4,0.3-0.7,0.7-0.7
			C-202.5,399.2-202.2,399.5-202.2,399.8z M-203.4,399.8c0,0.3,0.2,0.5,0.5,0.5c0.3,0,0.5-0.3,0.5-0.5c0-0.3-0.2-0.5-0.5-0.5
			C-203.2,399.3-203.4,399.5-203.4,399.8z M-203.1,399.5h0.3c0.1,0,0.3,0,0.3,0.2c0,0.1-0.1,0.2-0.1,0.2c0.1,0,0.1,0.1,0.1,0.2
			c0,0.1,0,0.2,0,0.2h-0.2c0,0,0-0.2,0-0.2c0,0,0-0.1-0.1-0.1h-0.1v0.3h-0.1V399.5z M-203,399.8h0.1c0.1,0,0.1-0.1,0.1-0.1
			c0-0.1-0.1-0.1-0.1-0.1h-0.1V399.8z"/>
	</g>
</g>
</svg>
